HIERARCHY
ROOT Hips
{
	OFFSET 0.00 0.00 0.00
	CHANNELS 6 Xposition Yposition Zposition Xrotation Yrotation Zrotation
	JOINT Spine
	{
		OFFSET 0.00000 7.06766 0.00000
		CHANNELS 3 Xrotation Yrotation Zrotation
		JOINT Head
		{
			OFFSET 0.00000 15.03989 0.00000
			CHANNELS 3 Xrotation Yrotation Zrotation
			End Site
			{
				OFFSET 0.00000 4.52755 0.00000
			}
		}
		JOINT LeftShoulder
		{
			OFFSET 0.00000 10.53037 0.00000
			CHANNELS 3 Xrotation Yrotation Zrotation
			JOINT LeftArm
			{
				OFFSET 7.02886 0.00000 0.00000
				CHANNELS 3 Xrotation Yrotation Zrotation
				JOINT LeftForeArm
				{
					OFFSET 10.79770 0.00000 0.00000
					CHANNELS 3 Yrotation Zrotation Xrotation
					JOINT LeftHand
					{
						OFFSET 7.90744 0.00000 0.00000
						CHANNELS 3 Xrotation Yrotation Zrotation
						JOINT LeftHandThumb1
						{
							OFFSET 0.00000 0.00000 0.00000
							CHANNELS 3 Xrotation Zrotation Yrotation
							End Site
							{
								OFFSET 0.00000 0.00000 3.93700
							}
						}
						End Site
						{
							OFFSET 3.93700 0.00000 0.00000
						}
					}
				}
			}
		}
		JOINT RightShoulder
		{
			OFFSET 0.00000 10.53037 0.00000
			CHANNELS 3 Xrotation Yrotation Zrotation
			JOINT RightArm
			{
				OFFSET -7.02886 0.00000 0.00000
				CHANNELS 3 Xrotation Yrotation Zrotation
				JOINT RightForeArm
				{
					OFFSET -10.79770 0.00000 0.00000
					CHANNELS 3 Yrotation Zrotation Xrotation
					JOINT RightHand
					{
						OFFSET -7.90744 0.00000 0.00000
						CHANNELS 3 Xrotation Yrotation Zrotation
						JOINT RightHandThumb1
						{
							OFFSET 0.00000 0.00000 0.00000
							CHANNELS 3 Xrotation Zrotation Yrotation
							End Site
							{
								OFFSET 0.00000 0.00000 3.93700
							}
						}
						End Site
						{
							OFFSET -3.93700 0.00000 0.00000
						}
					}
				}
			}
		}
	}
	JOINT LeftUpLeg
	{
		OFFSET 4.01300 0.00000 0.00000
		CHANNELS 3 Xrotation Yrotation Zrotation
		JOINT LeftLeg
		{
			OFFSET 0.00000 -16.89976 0.00000
			CHANNELS 3 Xrotation Yrotation Zrotation
			JOINT LeftFoot
			{
				OFFSET 0.00000 -17.38918 0.00000
				CHANNELS 3 Xrotation Yrotation Zrotation
				JOINT LeftToeBase
				{
					OFFSET 0.00000 -1.27456 4.75673
					CHANNELS 3 Xrotation Yrotation Zrotation
					End Site
					{
						OFFSET 0.00000 0.00000 2.95275
					}
				}
			}
		}
	}
	JOINT RightUpLeg
	{
		OFFSET -4.01300 0.00000 0.00000
		CHANNELS 3 Xrotation Yrotation Zrotation
		JOINT RightLeg
		{
			OFFSET 0.00000 -16.89976 0.00000
			CHANNELS 3 Xrotation Yrotation Zrotation
			JOINT RightFoot
			{
				OFFSET 0.00000 -17.38918 0.00000
				CHANNELS 3 Xrotation Yrotation Zrotation
				JOINT RightToeBase
				{
					OFFSET 0.00000 -1.27456 4.75673
					CHANNELS 3 Xrotation Yrotation Zrotation
					End Site
					{
						OFFSET 0.00000 0.00000 2.95275
					}
				}
			}
		}
	}
}
MOTION
Frames: 9
Frame Time: 0.008333
 18.4474 35.2937 -22.0515 174.4894 -2.7484 179.7554 -18.9364 -0.4252 -0.4779 9.4311 -1.3759 1.9753 -34.6125 1.1099 17.3965 4.2207 -6.8812 -8.0106 1.7127 0.0000 11.1888 0.6979 7.7903 -5.1352 33.1476 -0.0000 26.2537 1.0869 -12.7714 -9.9470 -35.6771 4.5300 7.6996 4.5265 -0.0000 37.8480 0.7745 -7.2329 6.1288 32.8623 0.0000 -24.3270 4.3800 8.0641 0.2934 -6.8147 0.0000 0.0000 -20.5321 29.8634 7.4015 27.2212 0.0000 -0.0000 3.0728 -8.2436 -3.2759 -2.2868 -0.0000 -0.0000 -20.1752 -28.3900 -1.1657 25.3833 -0.0000 0.0000
 18.4552 35.2909 -22.0669 174.5458 -2.6937 179.7611 -18.9503 -0.3942 -0.4563 9.5306 -1.4342 1.9287 -34.6424 1.1793 17.3923 4.3012 -6.8990 -7.9785 1.7270 0.0000 11.1806 0.6931 7.7834 -5.1047 33.1476 -0.0000 26.2537 0.9924 -12.7221 -9.9909 -35.0511 4.5428 7.5524 4.6090 -0.0000 37.1992 0.7799 -7.1817 6.2147 32.8623 0.0000 -24.3270 4.4652 8.1032 0.2989 -6.8099 0.0000 0.0000 -20.5680 29.8866 7.4046 27.2084 -0.0000 -0.0000 3.1630 -8.2344 -3.2677 -2.3183 0.0000 0.0000 -20.1813 -28.3552 -1.1663 25.4511 0.0000 -0.0000
 18.4639 35.2885 -22.0825 174.6009 -2.6338 179.7620 -18.9633 -0.3456 -0.4342 9.6172 -1.4837 1.9261 -34.6710 1.2344 17.3895 4.3621 -6.9072 -7.9555 1.7163 0.0000 11.1698 0.6958 7.8212 -5.1001 33.1476 -0.0000 26.2537 0.9447 -12.7130 -10.0262 -34.9877 4.5336 7.5068 4.6213 -0.0000 37.1274 0.7970 -7.2696 6.2738 32.8623 0.0000 -24.3270 4.5442 8.1554 0.3117 -6.8014 -0.0000 0.0000 -20.6039 29.8949 7.4468 27.2105 -0.0000 0.0000 3.2492 -8.2055 -3.2503 -2.3430 -0.0000 -0.0000 -20.2090 -28.3387 -1.1412 25.3811 -0.0000 0.0000
 18.4718 35.2858 -22.0966 174.6513 -2.5809 179.7719 -18.9695 -0.3246 -0.4319 9.6802 -1.5029 1.9328 -34.6805 1.3149 17.4279 4.3356 -6.9135 -7.9645 1.7113 0.0000 11.2319 0.6976 7.8371 -5.1025 33.1476 -0.0000 26.2537 0.9697 -12.7258 -10.0411 -34.9959 4.5592 7.5024 4.5908 -0.0000 37.1208 0.7910 -7.2629 6.2328 32.8623 0.0000 -24.3270 4.6142 8.1760 0.3152 -6.7778 0.0000 0.0000 -20.6591 29.9227 7.4659 27.2760 -0.0000 0.0000 3.3185 -8.2088 -3.2487 -2.3542 0.0000 -0.0000 -20.2027 -28.2830 -1.0696 25.3186 -0.0000 0.0000
 18.4795 35.2833 -22.1076 174.6856 -2.5322 179.7828 -18.9806 -0.2943 -0.4386 9.7269 -1.5430 1.9556 -34.6848 1.3828 17.4657 4.2827 -6.9144 -7.9788 1.7291 0.0000 11.2914 0.6912 7.8564 -5.0441 33.1476 -0.0000 26.2537 0.9702 -12.7611 -10.0595 -35.4500 4.5625 7.5882 4.5154 -0.0000 37.5328 0.7776 -7.1947 6.1848 32.8623 0.0000 -24.3270 4.6563 8.1962 0.3174 -6.7473 0.0000 -0.0000 -20.6997 29.9369 7.4940 27.2679 -0.0000 0.0000 3.3652 -8.1954 -3.2491 -2.3537 0.0000 0.0000 -20.2614 -28.2527 -1.1562 25.4691 0.0000 -0.0000
 18.4875 35.2814 -22.1181 174.7308 -2.4911 179.7896 -18.9765 -0.2822 -0.4299 9.7833 -1.5630 1.9369 -34.6715 1.4636 17.4790 4.2365 -6.9062 -7.9701 1.7452 0.0000 11.3472 0.6995 7.8693 -5.0957 33.1476 -0.0000 26.2537 0.9534 -12.7717 -10.0847 -35.3074 4.5956 7.5711 4.5273 -0.0000 37.3612 0.7837 -7.1873 6.2399 32.8623 0.0000 -24.3270 4.7052 8.2193 0.3243 -6.7138 0.0000 0.0000 -20.7486 29.9547 7.5154 27.3034 0.0000 -0.0000 3.4256 -8.1980 -3.2467 -2.3618 -0.0000 -0.0000 -20.2821 -28.1903 -1.1529 25.4034 -0.0000 -0.0000
 18.4951 35.2796 -22.1281 174.7777 -2.4477 179.7979 -18.9644 -0.2635 -0.4217 9.8150 -1.5726 1.9259 -34.6671 1.5313 17.4896 4.2146 -6.8885 -7.9628 1.7515 0.0000 11.3716 0.7056 7.8788 -5.1340 33.1476 -0.0000 26.2537 0.9554 -12.8017 -10.0895 -35.4693 4.6524 7.5938 4.4309 -0.0000 37.4799 0.7815 -7.2157 6.1984 32.8623 0.0000 -24.3270 4.7568 8.2407 0.3285 -6.6820 -0.0000 -0.0000 -20.7928 29.9818 7.5446 27.2995 -0.0000 -0.0000 3.4827 -8.1999 -3.2434 -2.3675 -0.0000 -0.0000 -20.3004 -28.1452 -1.1112 25.4284 -0.0000 -0.0000
 18.5062 35.2774 -22.1373 174.8439 -2.4414 179.7941 -18.9238 -0.2605 -0.4241 9.8809 -1.6217 1.9122 -34.6703 1.5545 17.4811 4.2272 -6.8550 -7.9411 1.7733 0.0000 11.3659 0.7003 7.8977 -5.0833 33.1476 -0.0000 26.2537 0.9248 -12.8017 -10.1069 -35.1024 4.6496 7.5313 4.4808 -0.0000 37.1010 0.7945 -7.2499 6.2710 32.8623 0.0000 -24.3270 4.8178 8.2364 0.3551 -6.6475 0.0000 -0.0000 -20.8342 29.9788 7.5781 27.2755 -0.0000 -0.0000 3.5712 -8.2580 -3.2181 -2.3846 0.0000 -0.0000 -20.2863 -28.1020 -1.0372 25.3782 -0.0000 0.0000
 18.5165 35.2752 -22.1462 174.8771 -2.4016 179.7938 -18.9230 -0.2351 -0.4273 9.9149 -1.6333 1.9393 -34.6596 1.6057 17.5115 4.2444 -6.8546 -7.9457 1.7973 0.0000 11.3570 0.7037 7.8299 -5.1516 33.1476 -0.0000 26.2537 0.9247 -12.8288 -10.1009 -35.3659 4.6620 7.5722 4.4086 -0.0000 37.4163 0.7812 -7.1760 6.2294 32.8623 0.0000 -24.3270 4.8520 8.2792 0.3708 -6.6188 -0.0000 0.0000 -20.8760 29.9691 7.6324 27.3044 0.0000 -0.0000 3.6174 -8.2617 -3.2017 -2.3900 0.0000 0.0000 -20.3229 -28.0463 -1.0697 25.4050 -0.0000 0.0000
